<?xml version="1.0" encoding="utf-8"?>
<!-- Generator: Adobe Illustrator 15.0.0, SVG Export Plug-In  -->
<!DOCTYPE svg PUBLIC "-//W3C//DTD SVG 1.1//EN" "http://www.w3.org/Graphics/SVG/1.1/DTD/svg11.dtd" [
	<!ENTITY ns_flows "http://ns.adobe.com/Flows/1.0/">
]>
<svg version="1.1"
	 xmlns="http://www.w3.org/2000/svg" xmlns:xlink="http://www.w3.org/1999/xlink" xmlns:a="http://ns.adobe.com/AdobeSVGViewerExtensions/3.0/"
	 x="0px" y="0px" width="138px" height="89px" viewBox="-1 0 138 89" overflow="visible" enable-background="new -1 0 138 89"
	 xml:space="preserve">
<defs>
</defs>
<path fill-rule="evenodd" clip-rule="evenodd" fill="#808080" d="M66,3.354c-24.499,5.168-25.939,33.395-48,41
	c16.188,11.145,18.538,36.129,43,39c0.178,3.511-3.378,3.289-4,6c-30.067-3.266-26.622-40.045-57-43c1.594-4.072,6.076-5.258,11-6
	c15.737-2.015,20.599-20.353,30-31C45.903,3.801,57.22-4.809,66,3.354z"/>
<path fill-rule="evenodd" clip-rule="evenodd" fill="#808080" d="M70,3.354c24.499,5.168,25.939,33.395,48,41
	c-16.188,11.145-18.538,36.129-43,39c-0.178,3.511,3.378,3.289,4,6c30.067-3.266,26.622-40.045,57-43c-1.594-4.072-6.076-5.258-11-6
	c-15.737-2.015-20.599-20.353-30-31C90.097,3.801,78.78-4.809,70,3.354z"/>
</svg>
